HIERARCHY
ROOT Hips
{
	OFFSET -3.958830 18.904000 13.208200
	CHANNELS 6 Xposition Yposition Zposition Zrotation Yrotation Xrotation 
	JOINT LHipJoint
	{
		OFFSET 0.000000 0.000000 0.000000
		CHANNELS 3 Zrotation Yrotation Xrotation
		JOINT LeftUpLeg
		{
			OFFSET 1.800000 -1.400000 0.085000
			CHANNELS 3 Zrotation Yrotation Xrotation
			JOINT LeftLeg
			{
				OFFSET 2.215000 -6.000000 0.000000
				CHANNELS 3 Zrotation Yrotation Xrotation
				JOINT LeftFoot
				{
					OFFSET 2.500000 -6.900000 0.000000
					CHANNELS 3 Zrotation Yrotation Xrotation
					JOINT LeftToeBase
					{
						OFFSET 0.200000 -0.500000 1.950000
						CHANNELS 3 Zrotation Yrotation Xrotation
						End Site
						{
							OFFSET 0.000000 0.000000 0.000000
						}
					}
				}
			}
		}
	}
	JOINT RHipJoint
	{
		OFFSET 0.000000 0.000000 0.000000
		CHANNELS 3 Zrotation Yrotation Xrotation
		JOINT RightUpLeg
		{
			OFFSET -1.800000 -1.400000 0.085000
			CHANNELS 3 Zrotation Yrotation Xrotation
			JOINT RightLeg
			{
				OFFSET -2.215000 -6.000000 0.000000
				CHANNELS 3 Zrotation Yrotation Xrotation
				JOINT RightFoot
				{
					OFFSET -2.500000 -6.900000 0.000000
					CHANNELS 3 Zrotation Yrotation Xrotation
					JOINT RightToeBase
					{
						OFFSET -0.200000 -0.500000 1.950000
						CHANNELS 3 Zrotation Yrotation Xrotation
						End Site
						{
							OFFSET 0.000000 0.000000 0.000000
						}
					}
				}
			}
		}
	}
	JOINT LowerBack
	{
		OFFSET 0.000000 0.000000 0.000000
		CHANNELS 3 Zrotation Yrotation Xrotation
		JOINT Spine
		{
			OFFSET -0.087000 1.940000 -0.288900
			CHANNELS 3 Zrotation Yrotation Xrotation
			JOINT Spine1
			{
				OFFSET 0.000000 1.950000 0.060000
				CHANNELS 3 Zrotation Yrotation Xrotation
				JOINT Neck
				{
					OFFSET 0.000000 0.000000 0.000000
					CHANNELS 3 Zrotation Yrotation Xrotation
					JOINT Neck1
					{
						OFFSET 0.000000 1.600000 0.340000
						CHANNELS 3 Zrotation Yrotation Xrotation
						JOINT Head
						{
							OFFSET 0.000000 1.667000 -0.240000
							CHANNELS 3 Zrotation Yrotation Xrotation
							End Site
							{
								OFFSET 0.000000 0.000000 0.000000
							}
						}
					}
				}
				JOINT LeftShoulder
				{
					OFFSET 0.000000 0.000000 0.000000
					CHANNELS 3 Zrotation Yrotation Xrotation
					JOINT LeftArm
					{
						OFFSET 2.700000 1.550000 -0.730000
						CHANNELS 3 Zrotation Yrotation Xrotation
						JOINT LeftForeArm
						{
							OFFSET 5.450000 0.000000 0.000000
							CHANNELS 3 Zrotation Yrotation Xrotation
							JOINT LeftHand
							{
								OFFSET 3.450000 0.000000 0.000000
								CHANNELS 3 Zrotation Yrotation Xrotation
								JOINT LeftHandIndex1
								{
									OFFSET 0.750000 0.000000 0.000000
									CHANNELS 3 Zrotation Yrotation Xrotation
									End Site
									{
										OFFSET 0.000000 0.000000 0.000000
									}
								}
							}
						}
					}
				}
				JOINT RightShoulder
				{
					OFFSET 0.000000 0.000000 0.000000
					CHANNELS 3 Zrotation Yrotation Xrotation
					JOINT RightArm
					{
						OFFSET -2.700000 1.550000 -0.730000
						CHANNELS 3 Zrotation Yrotation Xrotation
						JOINT RightForeArm
						{
							OFFSET -5.450000 0.000000 0.000000
							CHANNELS 3 Zrotation Yrotation Xrotation
							JOINT RightHand
							{
								OFFSET -3.450000 0.000000 0.000000
								CHANNELS 3 Zrotation Yrotation Xrotation
								JOINT RightHandIndex1
								{
									OFFSET -0.750000 0.000000 0.000000
									CHANNELS 3 Zrotation Yrotation Xrotation
									End Site
									{
										OFFSET 0.000000 0.000000 0.000000
									}
								}
							}
						}
					}
				}
			}
		}
	}
}
MOTION
Frames: 11
Frame Time: 0.016667
-0.141000 16.675660 -2.572070 -2.918833 -1.035826 2.467229 -15.456108 13.225384 2.592301 1.084731 1.284323 5.001192 -6.646874 6.993231 12.349294 0.255396 5.344426 2.896150 -0.073090 -0.113330 -0.136890 18.270068 -8.912402 3.999598 0.644581 4.850989 -37.097165 9.774555 -0.680210 -7.593717 0.342084 -1.607627 3.818096 0.067660 0.436560 0.115210 -3.225677 -3.649111 -7.694191 3.673895 -4.671984 7.485803 1.712851 -6.278550 13.766483 -3.899201 -0.023487 -10.799020 -4.460000 4.161117 40.607442 -0.424440 4.968940 5.552470 3.679116 -13.953791 1.022786 -9.063349 -28.174298 2.915400 -0.172858 -49.589563 2.728179 -3.820528 3.287891 -0.093240 0.371980 -0.247330 0.089840 4.155934 11.298530 9.272643 50.883088 8.867369 -2.702737 47.231802 72.199732 25.443261 2.187390 -2.036282 -0.177300 0.131740 0.143020 0.007280 
-0.146650 16.656070 -2.495320 -3.441000 -0.709100 2.465756 -15.429937 13.295279 2.552329 1.599033 1.078798 4.834011 -6.162475 7.085676 13.589317 0.247000 5.417128 2.875320 -0.093730 -0.139350 -0.153040 18.283725 -8.964852 3.993677 0.989497 5.109310 -37.834509 9.922544 -0.972245 -5.309325 0.381293 -1.511561 3.850763 0.059050 0.456200 0.114930 -3.281935 -3.657944 -7.651535 4.430928 -5.021283 7.521322 2.004126 -6.625954 13.548013 -4.012940 -0.262568 -10.831913 -4.758388 4.318933 39.856635 -0.534590 5.015610 5.713220 3.524376 -13.945570 1.266689 -10.257529 -27.822984 3.188094 -2.580067 -48.862320 3.659713 -3.836425 3.291497 -0.097850 0.384300 -0.263100 0.086720 4.541802 11.340454 9.130681 51.779744 9.107956 -3.119351 45.357848 72.389247 24.227939 2.171133 -2.034789 -0.189600 0.137830 0.158060 0.007640 
-0.164170 16.652080 -2.356990 -3.651266 -0.352748 2.123450 -15.412517 13.404829 2.519845 2.032632 0.905376 4.887384 -5.530212 7.306551 15.776981 0.247877 5.584695 2.817701 -0.105120 -0.153300 -0.168750 18.282733 -9.069429 3.934970 1.257613 5.268860 -38.275596 9.500891 -1.463868 -1.611050 0.423120 -1.410240 3.884283 0.060150 0.474280 0.110840 -3.301702 -3.677335 -7.563378 4.653308 -5.401353 7.339546 2.576047 -7.018573 13.294003 -4.259395 -0.482903 -10.777945 -5.057890 4.581454 39.592235 -0.395030 5.018240 5.767720 3.438833 -13.880058 1.717742 -12.518693 -27.417057 3.966892 -7.616930 -46.910938 5.534521 -3.851843 3.292068 -0.095910 0.392900 -0.276780 0.087440 5.179237 11.385881 8.610512 53.585323 10.444901 -3.643536 39.235472 69.776744 19.321526 2.129160 -2.005905 -0.204560 0.149640 0.170890 0.007010 
-0.188680 16.690670 -2.197710 -3.930524 -0.279785 1.654533 -15.372164 13.484751 2.480707 2.795147 0.574625 4.698943 -5.353519 7.751246 18.628682 0.279160 5.843135 2.724872 -0.100810 -0.154630 -0.163560 18.297317 -9.223312 3.880473 1.867546 5.529658 -38.280629 8.998078 -2.053398 2.796203 0.436533 -1.375225 3.889654 0.058960 0.473580 0.110550 -3.373439 -3.569822 -7.493379 5.220607 -5.681040 7.440485 2.723040 -7.230756 13.135409 -4.244922 -0.300112 -10.741110 -4.586150 4.588165 39.960597 -0.185460 5.074320 5.834670 2.774186 -14.059367 2.259940 -15.350726 -26.774796 4.541110 -13.451164 -45.226005 7.516876 -3.858197 3.288162 -0.086230 0.387680 -0.272660 0.092390 5.865701 11.392016 8.061323 56.128768 11.904921 -3.789013 35.604425 66.302848 15.813449 2.135787 -1.957875 -0.207890 0.151980 0.166360 0.004960 
-0.231470 16.775710 -2.022160 -4.007827 -0.780231 0.433772 -15.356931 13.578843 2.491886 3.578932 0.310906 4.869480 -5.557773 8.445197 21.787361 0.369789 6.190227 2.574718 -0.083930 -0.141280 -0.128930 18.277929 -9.390374 3.797024 2.779454 5.658057 -36.586932 8.262384 -2.477290 6.084644 0.404660 -1.389592 3.879946 0.037780 0.406790 0.098980 -3.350435 -3.497319 -7.492580 4.924680 -5.680587 7.902630 3.195353 -7.217171 13.332179 -4.012559 -0.267880 -11.187517 -4.909042 4.811816 44.009013 -0.141770 5.357140 6.313190 1.739084 -14.605038 3.437806 -18.326555 -24.665284 4.464746 -18.706001 -43.674725 8.999017 -3.813043 3.260506 -0.040420 0.333280 -0.220400 0.080340 6.604651 12.163088 7.652542 58.030362 13.756452 -3.802275 32.033872 61.536196 12.427920 2.189613 -1.852666 -0.186480 0.134550 0.145940 -0.007770 
-0.278050 16.874720 -1.835840 -3.593162 -1.403515 -0.744097 -15.352016 13.709717 2.507716 3.278354 -0.071994 3.685004 -4.787097 9.022012 26.963793 0.468464 6.629301 2.389149 -0.070350 -0.136050 -0.112300 18.244327 -9.553326 3.697612 3.181196 5.564795 -34.431608 7.818846 -2.924280 9.212533 0.361864 -1.520259 3.829372 0.018280 0.357720 0.088570 -3.290389 -3.529459 -7.477028 4.465620 -5.672043 8.564048 3.844439 -7.136482 13.149971 -3.949390 -1.082012 -11.569921 -6.909166 5.485686 47.127888 0.067720 5.057830 6.803420 0.167423 -14.324568 4.599965 -21.993457 -21.627614 4.041070 -24.232059 -42.088257 10.207177 -3.781112 3.260188 -0.000600 0.281900 -0.182810 0.074890 8.245464 12.842525 7.215714 58.950846 14.638060 -3.853463 32.039125 57.541124 11.404625 2.258978 -1.773942 -0.168950 0.123070 0.134800 -0.011790 
-0.312920 16.961880 -1.648730 -2.869910 -2.167090 -1.969753 -15.362381 13.787306 2.598708 2.562573 -0.775788 1.240096 -4.434270 9.917169 33.429599 0.610392 7.299500 2.118731 -0.027080 -0.089220 -0.074310 18.190083 -9.728992 3.552851 2.669316 5.124061 -32.037392 7.787744 -3.408593 11.882380 0.288598 -1.725796 3.752726 0.024980 0.292320 0.060280 -3.173927 -3.518804 -7.510950 3.326039 -5.292029 9.572900 4.294651 -6.624626 12.875471 -3.738204 -1.575238 -12.027002 -8.242570 6.169795 50.253570 0.802010 4.760710 6.393060 -1.257302 -14.547224 5.488393 -25.144121 -19.147277 3.478241 -30.297611 -40.069807 11.304694 -3.729029 3.245532 0.056250 0.212130 -0.128760 0.078520 9.454855 13.914464 7.088443 59.609056 15.294157 -3.883861 33.474009 54.484867 11.206244 2.321956 -1.711619 -0.156440 0.131350 0.102650 -0.020740 
-0.351140 17.038910 -1.468890 -2.024640 -3.205013 -3.058057 -15.393758 13.773502 2.804439 1.669403 -2.072769 -2.366005 -4.196140 11.219058 41.562620 0.834813 8.374945 1.708520 0.011830 -0.050500 -0.026270 18.120509 -9.869193 3.382418 1.898172 4.614538 -29.489620 7.940240 -3.931859 14.231214 0.204477 -1.975139 3.653427 0.027900 0.218850 0.043010 -3.000019 -3.477598 -7.633209 1.909869 -4.572637 11.085917 5.007526 -5.768112 12.075354 -3.378920 -1.794494 -12.297129 -8.941050 6.392809 53.030142 1.065330 4.446400 5.397230 -3.782430 -14.892210 6.092361 -27.656537 -16.486231 2.487711 -35.559167 -37.123658 11.566182 -3.697958 3.219350 0.119330 0.144030 -0.067960 0.067150 11.523076 15.050574 6.927549 59.700643 15.314671 -4.077341 37.573049 50.856453 11.889554 2.392730 -1.655461 -0.142160 0.135790 0.080850 -0.037980 
-0.352400 17.074390 -1.300280 -1.103725 -4.998158 -3.877272 -15.424766 13.579427 3.186766 0.816950 -3.796192 -6.694045 -5.343369 13.781399 50.420701 1.202299 9.960240 1.164043 0.036680 -0.027680 0.009450 18.078227 -9.913508 3.183434 0.807463 4.199028 -27.559339 8.153366 -4.517481 16.710265 0.123183 -2.264391 3.540390 0.023490 0.159660 0.029610 -2.865008 -3.365969 -7.848980 1.177555 -3.708516 12.680459 5.483802 -4.755261 10.965165 -2.852765 -2.130480 -12.679781 -9.756292 7.088785 55.438230 1.289600 4.507450 4.705110 -6.429416 -15.388865 6.688511 -30.244587 -13.649390 1.339934 -39.642491 -33.422243 10.862101 -3.675720 3.195526 0.176000 0.087620 -0.017260 0.054620 13.315153 16.428694 6.915173 59.123579 15.347004 -4.174727 42.997751 48.420574 13.329164 2.452166 -1.629009 -0.132540 0.138420 0.068320 -0.053640 
-0.360020 17.047410 -1.143330 -0.125640 -7.267266 -4.497082 -15.470251 13.216261 3.720088 0.837120 -5.865594 -12.059809 -7.220635 18.026141 60.467737 1.729263 12.135439 0.491249 0.061950 -0.010370 0.043560 18.056471 -9.852386 2.964248 0.035714 4.083439 -26.637903 7.315591 -4.970678 20.144289 0.050778 -2.574389 3.410547 0.021170 0.105580 0.031950 -2.745699 -3.192819 -8.120915 0.461704 -2.601944 14.533202 5.693978 -3.465403 9.700105 -2.425497 -2.572721 -12.663913 -10.605327 7.445383 55.987797 0.925150 4.248550 3.575570 -8.437487 -14.655314 6.849013 -32.433933 -10.440077 -0.168204 -42.878901 -30.665216 10.076296 -3.655163 3.208661 0.217340 0.043060 0.021930 0.040180 14.565252 16.805120 6.687246 59.042398 15.130341 -4.085645 52.128071 47.494555 16.664288 2.506210 -1.666494 -0.117280 0.127020 0.059910 -0.067570 
-0.358060 16.974360 -1.000450 0.838459 -10.379347 -4.888520 -15.506099 12.698616 4.338414 2.091379 -7.515387 -18.000106 -10.095439 24.248713 69.639379 2.343313 14.570589 -0.175303 0.078840 -0.001970 0.069740 18.063936 -9.734759 2.752749 -0.761688 4.096235 -26.040347 6.741167 -5.303680 22.629484 -0.010545 -2.829553 3.309251 0.015700 0.064320 0.031420 -2.697185 -2.846011 -8.414939 0.306870 -0.942969 16.081639 5.645249 -1.581092 8.756266 -2.013899 -2.844615 -12.854262 -11.054799 7.631171 56.625244 0.774980 3.833590 2.523200 -9.165688 -14.144966 7.025877 -34.745185 -7.898839 -1.562077 -44.812384 -28.794205 9.259832 -3.628945 3.200983 0.259820 0.004810 0.055700 0.027590 14.456622 17.376202 6.772106 59.387645 15.013659 -4.177533 60.934497 47.709138 20.338717 2.542521 -1.703456 -0.109700 0.126060 0.056800 -0.079910 
